<svg xmlns="http://www.w3.org/2000/svg" viewBox="0 0 128 128" role="img"><title>Atlassian — dark_neon</title><defs><filter id="n" x="-40%" y="-40%" width="180%" height="180%"><feGaussianBlur stdDeviation="4" result="b"/><feMerge><feMergeNode in="b"/><feMergeNode in="SourceGraphic"/></feMerge></filter></defs><rect x="7" y="7" width="114" height="114" rx="34" fill="#08111F"/><rect x="16" y="16" width="96" height="96" rx="28" fill="#0D1726" stroke="#0052CC" stroke-opacity=".35"/><circle cx="64" cy="64" r="45" fill="#0052CC" opacity=".14" filter="url(#n)"/><svg x="25" y="25" width="78" height="78" viewBox="0 0 24 24" preserveAspectRatio="xMidYMid meet" filter="url(#n)"><ns0:title xmlns:ns0="http://www.w3.org/2000/svg">Atlassian</ns0:title><ns0:path xmlns:ns0="http://www.w3.org/2000/svg" fill="#0052CC" d="M7.12 11.084a.683.683 0 00-1.16.126L.075 22.974a.703.703 0 00.63 1.018h8.19a.678.678 0 00.63-.39c1.767-3.65.696-9.203-2.406-12.52zM11.434.386a15.515 15.515 0 00-.906 15.317l3.95 7.9a.703.703 0 00.628.388h8.19a.703.703 0 00.63-1.017L12.63.38a.664.664 0 00-1.196.006z" /></svg></svg>