<svg xmlns="http://www.w3.org/2000/svg" viewBox="0 0 128 128" role="img"><title>Bluesky — liquid_glass</title><defs><linearGradient id="g" x1="0" y1="0" x2="1" y2="1"><stop offset="0" stop-color="#FFFFFF" stop-opacity=".9"/><stop offset="1" stop-color="#CBD5E1" stop-opacity=".2"/></linearGradient><filter id="b"><feGaussianBlur stdDeviation="8"/></filter></defs><rect x="8" y="8" width="112" height="112" rx="34" fill="#F8FAFC" opacity=".4"/><circle cx="42" cy="40" r="34" fill="#0085FF" opacity=".28" filter="url(#b)"/><rect x="14" y="14" width="100" height="100" rx="30" fill="url(#g)" stroke="#FFFFFF" stroke-opacity=".7"/><svg x="25" y="25" width="78" height="78" viewBox="0 0 24 24" preserveAspectRatio="xMidYMid meet"><ns0:title xmlns:ns0="http://www.w3.org/2000/svg">Bluesky</ns0:title><ns0:path xmlns:ns0="http://www.w3.org/2000/svg" fill="#0085FF" d="M12 10.8c-1.087-2.114-4.046-6.053-6.798-7.995C2.566.944 1.561 1.266.902 1.565.139 1.908 0 3.08 0 3.768c0 .69.378 5.65.624 6.479.815 2.736 3.713 3.66 6.383 3.364.136-.02.275-.039.415-.056-.138.022-.276.04-.415.056-3.912.58-7.387 2.005-2.83 7.078 5.013 5.19 6.87-1.113 7.823-4.308.953 3.195 2.05 9.271 7.733 4.308 4.267-4.308 1.172-6.498-2.74-7.078a8.741 8.741 0 0 1-.415-.056c.14.017.279.036.415.056 2.67.297 5.568-.628 6.383-3.364.246-.828.624-5.79.624-6.478 0-.69-.139-1.861-.902-2.206-.659-.298-1.664-.62-4.3 1.24C16.046 4.748 13.087 8.687 12 10.8Z" /></svg></svg>