<svg xmlns="http://www.w3.org/2000/svg" viewBox="0 0 128 128" role="img"><title>Dropbox — gradient</title><defs><linearGradient id="g" x1="0" y1="0" x2="1" y2="1"><stop offset="0" stop-color="#0061FF"/><stop offset=".55" stop-color="#FFFFFF" stop-opacity=".84"/><stop offset="1" stop-color="#0061FF" stop-opacity=".62"/></linearGradient></defs><rect x="8" y="8" width="112" height="112" rx="34" fill="url(#g)"/><circle cx="93" cy="34" r="23" fill="#FFFFFF" opacity=".18"/><svg x="25" y="25" width="78" height="78" viewBox="0 0 24 24" preserveAspectRatio="xMidYMid meet"><ns0:title xmlns:ns0="http://www.w3.org/2000/svg">Dropbox</ns0:title><ns0:path xmlns:ns0="http://www.w3.org/2000/svg" fill="#0061FF" d="M6 1.807L0 5.629l6 3.822 6.001-3.822L6 1.807zM18 1.807l-6 3.822 6 3.822 6-3.822-6-3.822zM0 13.274l6 3.822 6.001-3.822L6 9.452l-6 3.822zM18 9.452l-6 3.822 6 3.822 6-3.822-6-3.822zM6 18.371l6.001 3.822 6-3.822-6-3.822L6 18.371z" /></svg></svg>